
            <svg xmlns="http://www.w3.org/2000/svg">
                <filter id="grayscale">
                    <feColorMatrix type="saturate" values="0"/>
                </filter>
                <g filter="url(#grayscale)">
                    <svg xmlns="http://www.w3.org/2000/svg" viewBox="-43.51501525878905 147.36499481201173 662.030029296875 296.43900526428223"> <svg xmlns="http://www.w3.org/2000/svg" xmlns:xlink="http://www.w3.org/1999/xlink" version="1.1" id="Layer_1" x="239.118" y="217.36499481201173" viewBox="1178 1170.0999755859375 1643.900390625 1659.7999267578125" xml:space="preserve" height="97.70047093868362" width="96.7646484375" preserveAspectRatio="xMinYMin" enable-background="new 0 0 4000 4000" style="overflow: visible;"><rect x="1568" y="2606.3" class="st0" width="181" height="223.5" style="fill: #168A53; fill-opacity: 1;"></rect><path class="st0" d="M2605.8,1674.2l-416.9,482.5l416.9,482.5c54.2,62.8,133.1,98.9,216.1,98.9l0,0v91.8h-714.6v-91.8h0   c21,0,32.2-24.6,18.5-40.5l-467.3-540.9l467.3-540.9c13.7-15.9,2.4-40.5-18.5-40.5h0v-91.8h714.6v91.8l0,0   C2738.9,1575.3,2660,1611.4,2605.8,1674.2z" style="fill: #168A53; fill-opacity: 1;"></path><path class="st0" d="M1720.1,1170.2v91.8l0,0c-34,0-61.7,27.6-61.7,61.7v833.1l-418.7,484.6V1323.6c0-34-27.6-61.7-61.7-61.7h0   v-91.8H1720.1z" style="fill: #168A53; fill-opacity: 1;"></path></svg> <svg y="356.884" viewBox="0.6100000143051147 4.679999828338623 210.9600067138672 16.920000076293945" x="182.02" height="16.920000076293945" width="210.9600067138672" style="overflow: visible;"><g fill="#126F43" fill-opacity="1" style=""><path d="M5.44 18.00L5.44 18.00Q5.18 18.00 5.03 17.84Q4.88 17.68 4.88 17.46L4.88 17.46L4.88 5.99L5.99 5.99L5.99 17.46Q5.99 17.68 5.83 17.84Q5.67 18.00 5.44 18.00ZM9.72 6.43L1.15 6.43Q0.94 6.43 0.77 6.28Q0.61 6.14 0.61 5.90L0.61 5.90Q0.61 5.69 0.77 5.54Q0.94 5.40 1.15 5.40L1.15 5.40L9.72 5.40Q9.94 5.40 10.10 5.54Q10.26 5.69 10.26 5.92L10.26 5.92Q10.26 6.16 10.10 6.29Q9.94 6.43 9.72 6.43L9.72 6.43ZM11.75 18.00L11.75 18.00Q11.50 18.00 11.36 17.84Q11.21 17.68 11.21 17.46L11.21 17.46L11.21 9.40Q11.21 9.18 11.37 9.02Q11.52 8.86 11.75 8.86L11.75 8.86Q11.99 8.86 12.14 9.02Q12.29 9.18 12.29 9.40L12.29 9.40L12.29 12.10L12.02 12.15Q12.08 11.52 12.34 10.90Q12.60 10.28 13.05 9.76Q13.50 9.23 14.12 8.91Q14.74 8.59 15.52 8.59L15.52 8.59Q15.84 8.59 16.15 8.72Q16.45 8.86 16.45 9.16L16.45 9.16Q16.45 9.43 16.31 9.58Q16.16 9.72 15.97 9.72L15.97 9.72Q15.80 9.72 15.62 9.63Q15.43 9.54 15.12 9.54L15.12 9.54Q14.62 9.54 14.11 9.84Q13.61 10.13 13.19 10.64Q12.78 11.14 12.54 11.76Q12.29 12.38 12.29 13.01L12.29 13.01L12.29 17.46Q12.29 17.68 12.13 17.84Q11.97 18.00 11.75 18.00ZM25.47 8.80L25.47 8.80Q25.70 8.80 25.86 8.96Q26.01 9.13 26.01 9.36L26.01 9.36L26.01 17.46Q26.01 17.68 25.85 17.84Q25.69 18.00 25.47 18.00L25.47 18.00Q25.24 18.00 25.08 17.84Q24.93 17.68 24.93 17.46L24.93 17.46L24.93 15.32L25.24 15.17Q25.24 15.68 24.96 16.20Q24.68 16.72 24.19 17.17Q23.71 17.62 23.05 17.90Q22.39 18.18 21.64 18.18L21.64 18.18Q20.41 18.18 19.45 17.55Q18.49 16.92 17.94 15.82Q17.39 14.72 17.39 13.36L17.39 13.36Q17.39 11.95 17.95 10.88Q18.50 9.81 19.46 9.20Q20.41 8.59 21.62 8.59L21.62 8.59Q22.39 8.59 23.07 8.86Q23.74 9.13 24.25 9.59Q24.75 10.06 25.03 10.67Q25.31 11.27 25.31 11.92L25.31 11.92L24.93 11.65L24.93 9.36Q24.93 9.13 25.08 8.96Q25.24 8.80 25.47 8.80ZM21.73 17.17L21.73 17.17Q22.68 17.17 23.42 16.68Q24.16 16.18 24.58 15.31Q25.00 14.44 25.00 13.36L25.00 13.36Q25.00 12.29 24.58 11.45Q24.16 10.60 23.42 10.10Q22.68 9.59 21.73 9.59L21.73 9.59Q20.79 9.59 20.04 10.08Q19.30 10.57 18.87 11.41Q18.45 12.26 18.45 13.36L18.45 13.36Q18.45 14.44 18.87 15.31Q19.30 16.18 20.03 16.68Q20.77 17.17 21.73 17.17ZM33.17 8.59L33.17 8.59Q34.36 8.59 35.07 9.06Q35.78 9.54 36.10 10.36Q36.41 11.18 36.41 12.17L36.41 12.17L36.41 17.46Q36.41 17.68 36.25 17.84Q36.09 18.00 35.87 18.00L35.87 18.00Q35.62 18.00 35.48 17.84Q35.33 17.68 35.33 17.46L35.33 17.46L35.33 12.22Q35.33 11.50 35.10 10.91Q34.87 10.31 34.34 9.95Q33.80 9.59 32.94 9.59L32.94 9.59Q32.17 9.59 31.47 9.95Q30.78 10.31 30.35 10.91Q29.92 11.50 29.92 12.22L29.92 12.22L29.92 17.46Q29.92 17.68 29.75 17.84Q29.59 18.00 29.38 18.00L29.38 18.00Q29.12 18.00 28.98 17.84Q28.84 17.68 28.84 17.46L28.84 17.46L28.84 9.40Q28.84 9.18 28.99 9.02Q29.14 8.86 29.38 8.86L29.38 8.86Q29.61 8.86 29.76 9.02Q29.92 9.18 29.92 9.40L29.92 9.40L29.92 10.91L29.50 11.56Q29.54 10.98 29.87 10.45Q30.20 9.92 30.73 9.50Q31.25 9.07 31.89 8.83Q32.53 8.59 33.17 8.59ZM38.72 16.54L38.72 16.54Q38.57 16.33 38.58 16.12Q38.59 15.91 38.81 15.79L38.81 15.79Q38.95 15.66 39.14 15.68Q39.33 15.70 39.49 15.86L39.49 15.86Q39.98 16.49 40.67 16.88Q41.36 17.26 42.32 17.26L42.32 17.26Q42.82 17.26 43.32 17.09Q43.81 16.92 44.14 16.57Q44.46 16.22 44.46 15.68L44.46 15.68Q44.46 15.12 44.14 14.78Q43.81 14.44 43.30 14.24Q42.79 14.04 42.21 13.90L42.21 13.90Q41.60 13.73 41.02 13.53Q40.45 13.32 40.01 13.01Q39.56 12.69 39.29 12.24Q39.02 11.79 39.02 11.14L39.02 11.14Q39.02 10.39 39.44 9.81Q39.85 9.23 40.56 8.91Q41.27 8.59 42.17 8.59L42.17 8.59Q42.62 8.59 43.15 8.70Q43.67 8.82 44.17 9.09Q44.68 9.36 45.07 9.83L45.07 9.83Q45.23 9.99 45.23 10.20Q45.23 10.40 45.05 10.57L45.05 10.57Q44.91 10.67 44.72 10.67Q44.53 10.67 44.41 10.53L44.41 10.53Q43.97 10.04 43.38 9.79Q42.79 9.54 42.10 9.54L42.10 9.54Q41.58 9.54 41.12 9.71Q40.66 9.88 40.36 10.22Q40.05 10.57 40.05 11.12L40.05 11.12Q40.09 11.65 40.42 11.97Q40.75 12.29 41.30 12.51Q41.85 12.73 42.53 12.91L42.53 12.91Q43.11 13.05 43.64 13.25Q44.17 13.45 44.58 13.74Q44.98 14.04 45.23 14.49Q45.47 14.94 45.47 15.62L45.47 15.62Q45.47 16.42 45.03 16.99Q44.59 17.57 43.85 17.87Q43.11 18.18 42.21 18.18L42.21 18.18Q41.24 18.18 40.33 17.80Q39.42 17.42 38.72 16.54ZM51.01 4.75L51.01 4.75Q51.28 4.75 51.60 4.81Q51.91 4.86 52.15 5.00Q52.38 5.13 52.38 5.40L52.38 5.40Q52.38 5.60 52.24 5.75Q52.09 5.90 51.91 5.90L51.91 5.90Q51.73 5.90 51.46 5.81Q51.19 5.71 50.89 5.71L50.89 5.71Q50.51 5.71 50.24 5.88Q49.97 6.05 49.82 6.36Q49.68 6.68 49.68 7.13L49.68 7.13L49.68 17.46Q49.68 17.68 49.53 17.84Q49.37 18.00 49.14 18.00L49.14 18.00Q48.91 18.00 48.75 17.84Q48.60 17.68 48.60 17.46L48.60 17.46L48.60 7.13Q48.60 5.98 49.28 5.36Q49.95 4.75 51.01 4.75ZM47.29 8.98L51.70 8.98Q51.91 8.98 52.06 9.13Q52.20 9.27 52.20 9.49L52.20 9.49Q52.20 9.70 52.06 9.85Q51.91 9.99 51.70 9.99L51.70 9.99L47.29 9.99Q47.09 9.99 46.94 9.84Q46.78 9.68 46.78 9.49L46.78 9.49Q46.78 9.25 46.94 9.12Q47.09 8.98 47.29 8.98L47.29 8.98ZM62.06 13.39L62.06 13.39Q62.06 14.76 61.47 15.85Q60.88 16.94 59.85 17.56Q58.82 18.18 57.51 18.18L57.51 18.18Q56.23 18.18 55.20 17.56Q54.16 16.94 53.56 15.85Q52.96 14.76 52.96 13.39L52.96 13.39Q52.96 12.01 53.56 10.93Q54.16 9.85 55.20 9.22Q56.23 8.59 57.51 8.59L57.51 8.59Q58.82 8.59 59.85 9.22Q60.88 9.85 61.47 10.93Q62.06 12.01 62.06 13.39ZM60.98 13.39L60.98 13.39Q60.98 12.29 60.53 11.44Q60.08 10.58 59.30 10.09Q58.52 9.59 57.51 9.59L57.51 9.59Q56.54 9.59 55.75 10.09Q54.95 10.58 54.50 11.44Q54.04 12.29 54.04 13.39L54.04 13.39Q54.04 14.49 54.50 15.34Q54.95 16.18 55.75 16.68Q56.54 17.17 57.51 17.17L57.51 17.17Q58.52 17.17 59.30 16.68Q60.08 16.18 60.53 15.34Q60.98 14.49 60.98 13.39ZM64.91 18.00L64.91 18.00Q64.66 18.00 64.51 17.84Q64.37 17.68 64.37 17.46L64.37 17.46L64.37 9.40Q64.37 9.18 64.52 9.02Q64.67 8.86 64.91 8.86L64.91 8.86Q65.14 8.86 65.30 9.02Q65.45 9.18 65.45 9.40L65.45 9.40L65.45 12.10L65.18 12.15Q65.23 11.52 65.49 10.90Q65.75 10.28 66.20 9.76Q66.65 9.23 67.28 8.91Q67.90 8.59 68.67 8.59L68.67 8.59Q68.99 8.59 69.30 8.72Q69.61 8.86 69.61 9.16L69.61 9.16Q69.61 9.43 69.46 9.58Q69.32 9.72 69.12 9.72L69.12 9.72Q68.96 9.72 68.77 9.63Q68.58 9.54 68.27 9.54L68.27 9.54Q67.77 9.54 67.27 9.84Q66.76 10.13 66.35 10.64Q65.93 11.14 65.69 11.76Q65.45 12.38 65.45 13.01L65.45 13.01L65.45 17.46Q65.45 17.68 65.29 17.84Q65.12 18.00 64.91 18.00ZM75.44 8.73L75.44 8.73Q76.55 8.73 77.35 9.32Q78.14 9.90 78.43 11.05L78.43 11.05L78.17 11.12L78.28 10.80Q78.52 10.26 79.07 9.78Q79.61 9.31 80.32 9.02Q81.02 8.73 81.74 8.73L81.74 8.73Q82.87 8.73 83.57 9.22Q84.26 9.70 84.57 10.52Q84.89 11.34 84.89 12.37L84.89 12.37L84.89 17.46Q84.89 17.68 84.74 17.84Q84.58 18.00 84.35 18.00L84.35 18.00Q84.11 18.00 83.96 17.84Q83.81 17.68 83.81 17.46L83.81 17.46L83.81 12.42Q83.81 11.68 83.57 11.07Q83.34 10.46 82.84 10.10Q82.33 9.74 81.49 9.74L81.49 9.74Q80.75 9.74 80.07 10.10Q79.40 10.46 78.98 11.07Q78.55 11.68 78.55 12.42L78.55 12.42L78.55 17.46Q78.55 17.68 78.40 17.84Q78.25 18.00 78.01 18.00L78.01 18.00Q77.78 18.00 77.63 17.84Q77.47 17.68 77.47 17.46L77.47 17.46L77.47 12.37Q77.47 11.63 77.26 11.03Q77.04 10.44 76.55 10.09Q76.07 9.74 75.24 9.74L75.24 9.74Q74.50 9.74 73.85 10.09Q73.19 10.44 72.78 11.03Q72.38 11.63 72.38 12.37L72.38 12.37L72.38 17.46Q72.38 17.68 72.22 17.84Q72.05 18.00 71.84 18.00L71.84 18.00Q71.59 18.00 71.44 17.84Q71.30 17.68 71.30 17.46L71.30 17.46L71.30 9.40Q71.30 9.18 71.45 9.02Q71.60 8.86 71.84 8.86L71.84 8.86Q72.07 8.86 72.23 9.02Q72.38 9.18 72.38 9.40L72.38 9.40L72.38 11.07L71.89 11.74Q71.95 11.20 72.24 10.66Q72.54 10.12 73.03 9.68Q73.51 9.25 74.13 8.99Q74.75 8.73 75.44 8.73ZM99.49 8.64L99.49 8.64Q99.72 8.64 99.87 8.80Q100.03 8.96 100.03 9.18L100.03 9.18L100.03 17.12Q100.03 18.58 99.45 19.58Q98.87 20.57 97.90 21.09Q96.93 21.60 95.69 21.60L95.69 21.60Q94.91 21.60 94.26 21.43Q93.60 21.26 93.19 20.99L93.19 20.99Q92.97 20.86 92.86 20.68Q92.75 20.50 92.84 20.30L92.84 20.30Q92.93 20.05 93.12 19.97Q93.31 19.89 93.51 19.98L93.51 19.98Q93.82 20.14 94.39 20.38Q94.97 20.61 95.71 20.61L95.71 20.61Q96.70 20.61 97.43 20.20Q98.15 19.78 98.55 19.00Q98.95 18.22 98.95 17.14L98.95 17.14L98.95 15.84L99.07 16.27Q98.80 16.83 98.31 17.26Q97.81 17.69 97.17 17.94Q96.53 18.18 95.81 18.18L95.81 18.18Q94.73 18.18 94.02 17.74Q93.31 17.30 92.97 16.52Q92.63 15.75 92.63 14.71L92.63 14.71L92.63 9.18Q92.63 8.96 92.77 8.80Q92.92 8.64 93.17 8.64L93.17 8.64Q93.40 8.64 93.56 8.80Q93.71 8.96 93.71 9.18L93.71 9.18L93.71 14.54Q93.71 15.80 94.26 16.49Q94.81 17.17 96.05 17.17L96.05 17.17Q96.82 17.17 97.47 16.80Q98.12 16.43 98.53 15.83Q98.95 15.23 98.95 14.54L98.95 14.54L98.95 9.18Q98.95 8.96 99.10 8.80Q99.25 8.64 99.49 8.64ZM111.33 13.39L111.33 13.39Q111.33 14.76 110.74 15.85Q110.14 16.94 109.12 17.56Q108.09 18.18 106.78 18.18L106.78 18.18Q105.50 18.18 104.46 17.56Q103.43 16.94 102.83 15.85Q102.22 14.76 102.22 13.39L102.22 13.39Q102.22 12.01 102.83 10.93Q103.43 9.85 104.46 9.22Q105.50 8.59 106.78 8.59L106.78 8.59Q108.09 8.59 109.12 9.22Q110.14 9.85 110.74 10.93Q111.33 12.01 111.33 13.39ZM110.25 13.39L110.25 13.39Q110.25 12.29 109.80 11.44Q109.35 10.58 108.57 10.09Q107.78 9.59 106.78 9.59L106.78 9.59Q105.80 9.59 105.01 10.09Q104.22 10.58 103.76 11.44Q103.30 12.29 103.30 13.39L103.30 13.39Q103.30 14.49 103.76 15.34Q104.22 16.18 105.01 16.68Q105.80 17.17 106.78 17.17L106.78 17.17Q107.78 17.17 108.57 16.68Q109.35 16.18 109.80 15.34Q110.25 14.49 110.25 13.39ZM120.51 8.86L120.51 8.86Q120.74 8.86 120.90 9.02Q121.05 9.18 121.05 9.40L121.05 9.40L121.05 14.47Q121.05 16.25 120.04 17.19Q119.03 18.13 117.32 18.13L117.32 18.13Q115.63 18.13 114.63 17.19Q113.63 16.25 113.63 14.47L113.63 14.47L113.63 9.40Q113.63 9.18 113.79 9.02Q113.94 8.86 114.17 8.86L114.17 8.86Q114.41 8.86 114.56 9.02Q114.71 9.18 114.71 9.40L114.71 9.40L114.71 14.47Q114.71 15.77 115.41 16.44Q116.10 17.12 117.32 17.12L117.32 17.12Q118.57 17.12 119.27 16.44Q119.97 15.77 119.97 14.47L119.97 14.47L119.97 9.40Q119.97 9.18 120.11 9.02Q120.26 8.86 120.51 8.86ZM124.42 18.00L124.42 18.00Q124.16 18.00 124.02 17.84Q123.88 17.68 123.88 17.46L123.88 17.46L123.88 9.40Q123.88 9.18 124.03 9.02Q124.18 8.86 124.42 8.86L124.42 8.86Q124.65 8.86 124.80 9.02Q124.96 9.18 124.96 9.40L124.96 9.40L124.96 12.10L124.69 12.15Q124.74 11.52 125.00 10.90Q125.26 10.28 125.71 9.76Q126.16 9.23 126.78 8.91Q127.40 8.59 128.18 8.59L128.18 8.59Q128.50 8.59 128.81 8.72Q129.11 8.86 129.11 9.16L129.11 9.16Q129.11 9.43 128.97 9.58Q128.83 9.72 128.63 9.72L128.63 9.72Q128.47 9.72 128.28 9.63Q128.09 9.54 127.78 9.54L127.78 9.54Q127.28 9.54 126.77 9.84Q126.27 10.13 125.86 10.64Q125.44 11.14 125.20 11.76Q124.96 12.38 124.96 13.01L124.96 13.01L124.96 17.46Q124.96 17.68 124.79 17.84Q124.63 18.00 124.42 18.00ZM147.22 11.70L147.22 11.70Q147.22 13.12 146.78 14.30Q146.34 15.48 145.53 16.35Q144.72 17.23 143.61 17.70Q142.51 18.18 141.19 18.18L141.19 18.18Q139.88 18.18 138.77 17.70Q137.66 17.23 136.85 16.35Q136.04 15.48 135.60 14.30Q135.16 13.12 135.16 11.70L135.16 11.70Q135.16 10.28 135.60 9.10Q136.04 7.92 136.85 7.05Q137.66 6.17 138.77 5.70Q139.88 5.22 141.19 5.22L141.19 5.22Q142.51 5.22 143.61 5.70Q144.72 6.17 145.53 7.05Q146.34 7.92 146.78 9.10Q147.22 10.28 147.22 11.70ZM146.07 11.70L146.07 11.70Q146.07 10.10 145.45 8.88Q144.83 7.67 143.73 6.98Q142.63 6.30 141.19 6.30L141.19 6.30Q139.77 6.30 138.66 6.98Q137.56 7.67 136.94 8.88Q136.31 10.10 136.31 11.70L136.31 11.70Q136.31 13.30 136.94 14.52Q137.56 15.73 138.66 16.42Q139.77 17.10 141.19 17.10L141.19 17.10Q142.63 17.10 143.73 16.42Q144.83 15.73 145.45 14.52Q146.07 13.30 146.07 11.70ZM156.38 8.86L156.38 8.86Q156.62 8.86 156.77 9.02Q156.92 9.18 156.92 9.40L156.92 9.40L156.92 14.47Q156.92 16.25 155.92 17.19Q154.91 18.13 153.20 18.13L153.20 18.13Q151.51 18.13 150.51 17.19Q149.51 16.25 149.51 14.47L149.51 14.47L149.51 9.40Q149.51 9.18 149.66 9.02Q149.81 8.86 150.05 8.86L150.05 8.86Q150.28 8.86 150.44 9.02Q150.59 9.18 150.59 9.40L150.59 9.40L150.59 14.47Q150.59 15.77 151.28 16.44Q151.97 17.12 153.20 17.12L153.20 17.12Q154.44 17.12 155.14 16.44Q155.84 15.77 155.84 14.47L155.84 14.47L155.84 9.40Q155.84 9.18 155.99 9.02Q156.13 8.86 156.38 8.86ZM159.16 8.84L159.16 8.84L163.35 8.84Q163.57 8.84 163.71 8.99Q163.85 9.14 163.85 9.36L163.85 9.36Q163.85 9.56 163.71 9.70Q163.57 9.85 163.35 9.85L163.35 9.85L159.16 9.85Q158.94 9.85 158.79 9.69Q158.63 9.54 158.63 9.34L158.63 9.34Q158.63 9.13 158.79 8.98Q158.94 8.84 159.16 8.84ZM161.01 6.30L161.01 6.30Q161.24 6.30 161.40 6.46Q161.55 6.62 161.55 6.84L161.55 6.84L161.55 15.88Q161.55 16.38 161.69 16.63Q161.82 16.88 162.04 16.97Q162.25 17.05 162.47 17.05L162.47 17.05Q162.61 17.05 162.73 17.00Q162.85 16.96 162.99 16.96L162.99 16.96Q163.15 16.96 163.27 17.08Q163.39 17.21 163.39 17.41L163.39 17.41Q163.39 17.66 163.10 17.83Q162.81 18.00 162.41 18.00L162.41 18.00Q162.25 18.00 161.93 17.97Q161.60 17.95 161.26 17.78Q160.92 17.60 160.69 17.17Q160.47 16.74 160.47 15.93L160.47 15.93L160.47 6.84Q160.47 6.62 160.62 6.46Q160.78 6.30 161.01 6.30ZM173.30 4.68L173.30 4.68Q173.54 4.68 173.69 4.83Q173.84 4.99 173.84 5.22L173.84 5.22L173.84 17.46Q173.84 17.68 173.68 17.84Q173.52 18.00 173.30 18.00L173.30 18.00Q173.07 18.00 172.92 17.84Q172.76 17.68 172.76 17.46L172.76 17.46L172.76 15.32L173.07 15.07Q173.07 15.57 172.80 16.12Q172.53 16.67 172.03 17.14Q171.54 17.60 170.88 17.89Q170.23 18.18 169.47 18.18L169.47 18.18Q168.26 18.18 167.30 17.55Q166.34 16.92 165.78 15.84Q165.22 14.76 165.22 13.37L165.22 13.37Q165.22 12.01 165.78 10.92Q166.34 9.83 167.29 9.21Q168.25 8.59 169.45 8.59L169.45 8.59Q170.19 8.59 170.86 8.86Q171.52 9.13 172.03 9.59Q172.55 10.06 172.84 10.67Q173.14 11.27 173.14 11.92L173.14 11.92L172.76 11.65L172.76 5.22Q172.76 5.00 172.92 4.84Q173.07 4.68 173.30 4.68ZM169.56 17.17L169.56 17.17Q170.53 17.17 171.26 16.68Q171.99 16.18 172.41 15.33Q172.84 14.47 172.84 13.37L172.84 13.37Q172.84 12.29 172.41 11.44Q171.99 10.58 171.25 10.09Q170.51 9.59 169.56 9.59L169.56 9.59Q168.62 9.59 167.88 10.09Q167.13 10.58 166.71 11.44Q166.28 12.29 166.28 13.37L166.28 13.37Q166.28 14.45 166.71 15.32Q167.13 16.18 167.88 16.68Q168.62 17.17 169.56 17.17ZM185.24 13.39L185.24 13.39Q185.24 14.76 184.64 15.85Q184.05 16.94 183.02 17.56Q182.00 18.18 180.68 18.18L180.68 18.18Q179.41 18.18 178.37 17.56Q177.34 16.94 176.73 15.85Q176.13 14.76 176.13 13.39L176.13 13.39Q176.13 12.01 176.73 10.93Q177.34 9.85 178.37 9.22Q179.41 8.59 180.68 8.59L180.68 8.59Q182.00 8.59 183.02 9.22Q184.05 9.85 184.64 10.93Q185.24 12.01 185.24 13.39ZM184.16 13.39L184.16 13.39Q184.16 12.29 183.71 11.44Q183.26 10.58 182.47 10.09Q181.69 9.59 180.68 9.59L180.68 9.59Q179.71 9.59 178.92 10.09Q178.13 10.58 177.67 11.44Q177.21 12.29 177.21 13.39L177.21 13.39Q177.21 14.49 177.67 15.34Q178.13 16.18 178.92 16.68Q179.71 17.17 180.68 17.17L180.68 17.17Q181.69 17.17 182.47 16.68Q183.26 16.18 183.71 15.34Q184.16 14.49 184.16 13.39ZM196.11 13.39L196.11 13.39Q196.11 14.76 195.52 15.85Q194.92 16.94 193.90 17.56Q192.87 18.18 191.56 18.18L191.56 18.18Q190.28 18.18 189.24 17.56Q188.21 16.94 187.61 15.85Q187.00 14.76 187.00 13.39L187.00 13.39Q187.00 12.01 187.61 10.93Q188.21 9.85 189.24 9.22Q190.28 8.59 191.56 8.59L191.56 8.59Q192.87 8.59 193.90 9.22Q194.92 9.85 195.52 10.93Q196.11 12.01 196.11 13.39ZM195.03 13.39L195.03 13.39Q195.03 12.29 194.58 11.44Q194.13 10.58 193.35 10.09Q192.56 9.59 191.56 9.59L191.56 9.59Q190.58 9.59 189.79 10.09Q189 10.58 188.54 11.44Q188.08 12.29 188.08 13.39L188.08 13.39Q188.08 14.49 188.54 15.34Q189 16.18 189.79 16.68Q190.58 17.17 191.56 17.17L191.56 17.17Q192.56 17.17 193.35 16.68Q194.13 16.18 194.58 15.34Q195.03 14.49 195.03 13.39ZM198.95 18.00L198.95 18.00Q198.70 18.00 198.56 17.84Q198.41 17.68 198.41 17.46L198.41 17.46L198.41 9.40Q198.41 9.18 198.57 9.02Q198.72 8.86 198.95 8.86L198.95 8.86Q199.19 8.86 199.34 9.02Q199.49 9.18 199.49 9.40L199.49 9.40L199.49 12.10L199.22 12.15Q199.28 11.52 199.54 10.90Q199.80 10.28 200.25 9.76Q200.70 9.23 201.32 8.91Q201.94 8.59 202.72 8.59L202.72 8.59Q203.04 8.59 203.35 8.72Q203.65 8.86 203.65 9.16L203.65 9.16Q203.65 9.43 203.51 9.58Q203.36 9.72 203.17 9.72L203.17 9.72Q203.00 9.72 202.82 9.63Q202.63 9.54 202.32 9.54L202.32 9.54Q201.82 9.54 201.31 9.84Q200.81 10.13 200.39 10.64Q199.98 11.14 199.74 11.76Q199.49 12.38 199.49 13.01L199.49 13.01L199.49 17.46Q199.49 17.68 199.33 17.84Q199.17 18.00 198.95 18.00ZM204.82 16.54L204.82 16.54Q204.68 16.33 204.69 16.12Q204.70 15.91 204.91 15.79L204.91 15.79Q205.06 15.66 205.25 15.68Q205.43 15.70 205.60 15.86L205.60 15.86Q206.08 16.49 206.78 16.88Q207.47 17.26 208.42 17.26L208.42 17.26Q208.93 17.26 209.42 17.09Q209.92 16.92 210.24 16.57Q210.56 16.22 210.56 15.68L210.56 15.68Q210.56 15.12 210.24 14.78Q209.92 14.44 209.40 14.24Q208.89 14.04 208.31 13.90L208.31 13.90Q207.70 13.73 207.13 13.53Q206.55 13.32 206.11 13.01Q205.67 12.69 205.40 12.24Q205.13 11.79 205.13 11.14L205.13 11.14Q205.13 10.39 205.54 9.81Q205.96 9.23 206.67 8.91Q207.38 8.59 208.28 8.59L208.28 8.59Q208.73 8.59 209.25 8.70Q209.77 8.82 210.28 9.09Q210.78 9.36 211.18 9.83L211.18 9.83Q211.34 9.99 211.34 10.20Q211.34 10.40 211.16 10.57L211.16 10.57Q211.01 10.67 210.83 10.67Q210.64 10.67 210.51 10.53L210.51 10.53Q210.08 10.04 209.48 9.79Q208.89 9.54 208.21 9.54L208.21 9.54Q207.68 9.54 207.23 9.71Q206.77 9.88 206.46 10.22Q206.15 10.57 206.15 11.12L206.15 11.12Q206.19 11.65 206.52 11.97Q206.86 12.29 207.41 12.51Q207.95 12.73 208.64 12.91L208.64 12.91Q209.21 13.05 209.75 13.25Q210.28 13.45 210.68 13.74Q211.09 14.04 211.33 14.49Q211.57 14.94 211.57 15.62L211.57 15.62Q211.57 16.42 211.13 16.99Q210.69 17.57 209.95 17.87Q209.21 18.18 208.31 18.18L208.31 18.18Q207.34 18.18 206.43 17.80Q205.52 17.42 204.82 16.54Z" transform="translate(0, 0)"></path></g></svg> <svg y="323.0649948120117" viewBox="1.8600000143051147 10.140000343322754 522.030029296875 21.56999969482422" x="26.48498474121095" height="21.56999969482422" width="522.030029296875" style="overflow: visible;"><g fill="#262626" style=""><path d="M20.34 31.50L14.07 31.50L6.99 22.20L6.99 31.50L1.86 31.50L1.86 10.44L6.99 10.44L6.99 19.68L14.01 10.44L20.04 10.44L11.88 20.76L20.34 31.50ZM24.27 10.44L29.40 10.44L29.40 31.50L24.27 31.50L24.27 10.44ZM47.52 14.55L39.75 14.55L39.75 18.81L46.62 18.81L46.62 22.77L39.75 22.77L39.75 27.39L47.52 27.39L47.52 31.50L34.62 31.50L34.62 10.44L47.52 10.44L47.52 14.55ZM68.88 31.50L63.09 31.50L58.71 23.55L57.48 23.55L57.48 31.50L52.35 31.50L52.35 10.44L60.96 10.44Q63.45 10.44 65.20 11.31Q66.96 12.18 67.83 13.70Q68.70 15.21 68.70 17.07L68.70 17.07Q68.70 19.17 67.51 20.82Q66.33 22.47 64.02 23.16L64.02 23.16L68.88 31.50ZM57.48 14.70L57.48 19.92L60.66 19.92Q62.07 19.92 62.77 19.23Q63.48 18.54 63.48 17.28L63.48 17.28Q63.48 16.08 62.77 15.39Q62.07 14.70 60.66 14.70L60.66 14.70L57.48 14.70ZM87.78 31.50L86.52 27.78L78.66 27.78L77.40 31.50L72.03 31.50L79.65 10.44L85.59 10.44L93.21 31.50L87.78 31.50ZM80.01 23.82L85.20 23.82L82.59 16.11L80.01 23.82ZM115.86 10.44L115.86 31.50L110.73 31.50L102.15 18.51L102.15 31.50L97.02 31.50L97.02 10.44L102.15 10.44L110.73 23.49L110.73 10.44L115.86 10.44ZM128.70 31.71Q126.39 31.71 124.56 30.96Q122.73 30.21 121.64 28.74Q120.54 27.27 120.48 25.20L120.48 25.20L125.94 25.20Q126.06 26.37 126.75 26.98Q127.44 27.60 128.55 27.60L128.55 27.60Q129.69 27.60 130.35 27.07Q131.01 26.55 131.01 25.62L131.01 25.62Q131.01 24.84 130.48 24.33Q129.96 23.82 129.19 23.49Q128.43 23.16 127.02 22.74L127.02 22.74Q124.98 22.11 123.69 21.48Q122.40 20.85 121.47 19.62Q120.54 18.39 120.54 16.41L120.54 16.41Q120.54 13.47 122.67 11.80Q124.80 10.14 128.22 10.14L128.22 10.14Q131.70 10.14 133.83 11.80Q135.96 13.47 136.11 16.44L136.11 16.44L130.56 16.44Q130.50 15.42 129.81 14.84Q129.12 14.25 128.04 14.25L128.04 14.25Q127.11 14.25 126.54 14.75Q125.97 15.24 125.97 16.17L125.97 16.17Q125.97 17.19 126.93 17.76Q127.89 18.33 129.93 18.99L129.93 18.99Q131.97 19.68 133.25 20.31Q134.52 20.94 135.45 22.14Q136.38 23.34 136.38 25.23L136.38 25.23Q136.38 27.03 135.47 28.50Q134.55 29.97 132.81 30.84Q131.07 31.71 128.70 31.71L128.70 31.71ZM168.54 17.10L162.87 17.10Q162.30 16.05 161.23 15.50Q160.17 14.94 158.73 14.94L158.73 14.94Q156.24 14.94 154.74 16.58Q153.24 18.21 153.24 20.94L153.24 20.94Q153.24 23.85 154.81 25.48Q156.39 27.12 159.15 27.12L159.15 27.12Q161.04 27.12 162.34 26.16Q163.65 25.20 164.25 23.40L164.25 23.40L157.74 23.40L157.74 19.62L168.90 19.62L168.90 24.39Q168.33 26.31 166.96 27.96Q165.60 29.61 163.50 30.63Q161.40 31.65 158.76 31.65L158.76 31.65Q155.64 31.65 153.19 30.29Q150.75 28.92 149.38 26.49Q148.02 24.06 148.02 20.94L148.02 20.94Q148.02 17.82 149.38 15.38Q150.75 12.93 153.18 11.57Q155.61 10.20 158.73 10.20L158.73 10.20Q162.51 10.20 165.10 12.03Q167.70 13.86 168.54 17.10L168.54 17.10ZM187.62 31.50L186.36 27.78L178.50 27.78L177.24 31.50L171.87 31.50L179.49 10.44L185.43 10.44L193.05 31.50L187.62 31.50ZM179.85 23.82L185.04 23.82L182.43 16.11L179.85 23.82ZM213.39 31.50L207.60 31.50L203.22 23.55L201.99 23.55L201.99 31.50L196.86 31.50L196.86 10.44L205.47 10.44Q207.96 10.44 209.72 11.31Q211.47 12.18 212.34 13.70Q213.21 15.21 213.21 17.07L213.21 17.07Q213.21 19.17 212.03 20.82Q210.84 22.47 208.53 23.16L208.53 23.16L213.39 31.50ZM201.99 14.70L201.99 19.92L205.17 19.92Q206.58 19.92 207.28 19.23Q207.99 18.54 207.99 17.28L207.99 17.28Q207.99 16.08 207.28 15.39Q206.58 14.70 205.17 14.70L205.17 14.70L201.99 14.70ZM225.81 10.44Q229.14 10.44 231.63 11.76Q234.12 13.08 235.49 15.46Q236.85 17.85 236.85 20.97L236.85 20.97Q236.85 24.06 235.49 26.46Q234.12 28.86 231.62 30.18Q229.11 31.50 225.81 31.50L225.81 31.50L217.92 31.50L217.92 10.44L225.81 10.44ZM225.48 27.06Q228.39 27.06 230.01 25.47Q231.63 23.88 231.63 20.97L231.63 20.97Q231.63 18.06 230.01 16.44Q228.39 14.82 225.48 14.82L225.48 14.82L223.05 14.82L223.05 27.06L225.48 27.06ZM254.13 14.55L246.36 14.55L246.36 18.81L253.23 18.81L253.23 22.77L246.36 22.77L246.36 27.39L254.13 27.39L254.13 31.50L241.23 31.50L241.23 10.44L254.13 10.44L254.13 14.55ZM277.80 10.44L277.80 31.50L272.67 31.50L264.09 18.51L264.09 31.50L258.96 31.50L258.96 10.44L264.09 10.44L272.67 23.49L272.67 10.44L277.80 10.44ZM308.70 10.44L314.73 10.44L314.73 31.50L309.60 31.50L309.60 18.87L304.89 31.50L300.75 31.50L296.01 18.84L296.01 31.50L290.88 31.50L290.88 10.44L296.94 10.44L302.85 25.02L308.70 10.44ZM334.29 31.50L333.03 27.78L325.17 27.78L323.91 31.50L318.54 31.50L326.16 10.44L332.10 10.44L339.72 31.50L334.29 31.50ZM326.52 23.82L331.71 23.82L329.10 16.11L326.52 23.82ZM343.53 10.44L348.66 10.44L348.66 31.50L343.53 31.50L343.53 10.44ZM372.72 10.44L372.72 31.50L367.59 31.50L359.01 18.51L359.01 31.50L353.88 31.50L353.88 10.44L359.01 10.44L367.59 23.49L367.59 10.44L372.72 10.44ZM376.80 10.44L393.09 10.44L393.09 14.55L387.51 14.55L387.51 31.50L382.38 31.50L382.38 14.55L376.80 14.55L376.80 10.44ZM410.07 14.55L402.30 14.55L402.30 18.81L409.17 18.81L409.17 22.77L402.30 22.77L402.30 27.39L410.07 27.39L410.07 31.50L397.17 31.50L397.17 10.44L410.07 10.44L410.07 14.55ZM433.74 10.44L433.74 31.50L428.61 31.50L420.03 18.51L420.03 31.50L414.90 31.50L414.90 10.44L420.03 10.44L428.61 23.49L428.61 10.44L433.74 10.44ZM453.33 31.50L452.07 27.78L444.21 27.78L442.95 31.50L437.58 31.50L445.20 10.44L451.14 10.44L458.76 31.50L453.33 31.50ZM445.56 23.82L450.75 23.82L448.14 16.11L445.56 23.82ZM481.41 10.44L481.41 31.50L476.28 31.50L467.70 18.51L467.70 31.50L462.57 31.50L462.57 10.44L467.70 10.44L476.28 23.49L476.28 10.44L481.41 10.44ZM485.76 20.94Q485.76 17.82 487.11 15.38Q488.46 12.93 490.88 11.57Q493.29 10.20 496.35 10.20L496.35 10.20Q500.10 10.20 502.77 12.18Q505.44 14.16 506.34 17.58L506.34 17.58L500.70 17.58Q500.07 16.26 498.92 15.57Q497.76 14.88 496.29 14.88L496.29 14.88Q493.92 14.88 492.45 16.53Q490.98 18.18 490.98 20.94L490.98 20.94Q490.98 23.70 492.45 25.35Q493.92 27 496.29 27L496.29 27Q497.76 27 498.92 26.31Q500.07 25.62 500.70 24.30L500.70 24.30L506.34 24.30Q505.44 27.72 502.77 29.68Q500.10 31.65 496.35 31.65L496.35 31.65Q493.29 31.65 490.88 30.29Q488.46 28.92 487.11 26.49Q485.76 24.06 485.76 20.94L485.76 20.94ZM523.89 14.55L516.12 14.55L516.12 18.81L522.99 18.81L522.99 22.77L516.12 22.77L516.12 27.39L523.89 27.39L523.89 31.50L510.99 31.50L510.99 10.44L523.89 10.44L523.89 14.55Z" transform="translate(0, 0)"></path></g></svg></svg>
                </g>
            </svg>
        